{"title":"Concussion.2015.DVDScr.XVID.AC3.HQ.Hive-CM8","uid":13066025,"size":1812346880,"categoryP":"video","categoryS":"movies","magnet":"?xt=urn:btih:94e232cc7e86c0af7b8df1d6387ffed66da174a6&amp;dn=Concussion.2015.DVDScr.XVID.AC3.HQ.Hive-CM8&amp;tr=udp%3A%2F%2Ftracker.leechers-paradise.org%3A6969&amp;tr=udp%3A%2F%2Fzer0day.ch%3A1337&amp;tr=udp%3A%2F%2Fopen.demonii.com%3A1337&amp;tr=udp%3A%2F%2Ftracker.coppersurfer.tk%3A6969&amp;tr=udp%3A%2F%2Fexodus.desync.com%3A6969","seeders":30,"leechers":5,"uploader":".BONE.","files":1,"time":1450745370,"description":"will do them all one after each other, 7th hot title\r\n\r\nEncode:\r\n\r\nquality was perfect on this.\r\nAll digital watermarks are removed.10 lines had to go for security reasons\r\nonly added sharpness\r\n\r\ngot very nice\r\nenjoy\r\n\r\nVideo: 720x288 @bitrate 1700 2pass\r\nAudio: English AC3 2.0 Stereo\r\nSample: yes included\r\n \nhttp://www.imdb.com/title/tt3322364/\r\n\r\nGeneral\r\nComplete name                  : Concussion.2015.DVDScr.XVID.AC3.HQ.Hive-CM8.avi\r\nFormat                         : AVI\r\nFormat/Info                    : Audio Video Interleave\r\nFile size                      : 1.69 GiB\r\nDuration                       : 2h 2mn\r\nOverall bit rate               : 1 967 Kbps\r\nWriting application            : Nandub v1.0rc2\r\nWriting library                : Nandub build 1853/release\r\n\r\nVideo\r\nID                             : 0\r\nFormat                         : MPEG-4 Visual\r\nFormat profile                 : Advanced   \r\nFormat settings, BVOP          : 2\r\nFormat settings, QPel          : Yes\r\nFormat settings, GMC           : No warppoints\r\nFormat settings, Matrix        : Default (H.263)\r\nMuxing mode                    : Packed bitstream\r\nCodec ID                       : XVID\r\nCodec ID/Hint                  : XviD\r\nDuration                       : 2h 2mn\r\nBit rate                       : 1 700 Kbps\r\nWidth                          : 720 pixels\r\nHeight                         : 288 pixels\r\nDisplay aspect ratio           : 2.500\r\nFrame rate                     : 29.970 fps\r\nColor space                    : YUV\r\nChroma subsampling             : 4:2:0\r\nBit depth                      : 8 bits\r\nScan type                      : Progressive\r\nCompression mode               : Lossy\r\nBits/(Pixel*Frame)             : 0.274\r\nStream size                    : 1.46 GiB (86%)\r\nWriting library                : XviD 1.2.1 (UTC 2008-12-04)\r\n\r\nAudio\r\nID                             : 1\r\nFormat                         : AC-3\r\nFormat/Info                    : Audio Coding 3\r\nMode extension                 : CM (complete main)\r\nFormat settings, Endianness    : Big\r\nCodec ID                       : 2000\r\nDuration                       : 2h 2mn\r\nBit rate mode                  : Constant\r\nBit rate                       : 256 Kbps\r\nChannel(s)                     : 2 channels\r\nChannel positions              : Front: L R\r\nSampling rate                  : 48.0 KHz\r\nBit depth                      : 16 bits\r\nCompression mode               : Lossy\r\nStream size                    : 225 MiB (13%)\r\nAlignment                      : Split accross interleaves\r\nInterleave, duration           : 33 ms (1.00 video frame)\r\nInterleave, preload duration   : 500 ms\r\n\r\nScreens\r\n \nhttp://img908.imageshack.us/img908/913/9CD2B2.png \nhttp://img905.imageshack.us/img905/2627/4CiDA4.png \nhttp://img908.imageshack.us/img908/5061/nfoXMq.png \nhttp://img633.imageshack.us/img633/2066/vOoydK.png \nhttp://img908.imageshack.us/img908/347/SUQMQC.png \nhttp://img903.imageshack.us/img903/4316/Oyc5SM.png\r\n\r\nPlot\r\n\r\nIn Pittsburgh, accomplished pathologist Dr. Bennet Omalu uncovers the truth about brain damage\r\nin football players who suffer repeated concussions in the course of normal play.\r\nCast\r\n\r\nWill Smith         ...         Dr. Bennet Omalu\r\nAlec Baldwin         ...         Dr. Julian Bailes\r\nAlbert Brooks         ...         Dr. Cyril Wecht\r\nLuke Wilson         ...         Roger Goodell\r\nDavid Morse         ...         Mike Webster\r\n\r\n\r\nGreetz\r\n\r\nSugarB,iNCOMiNG,Izzy,MenaceIISociety,jiinx,SiMPLE,CherryBomb,bigguy79\r\nranbailey,ViSiON,UnKnOwN,YanKeeS,COPYxRIGHT,THC,VAiN,ACAB,DRs\r\nLKRG,Kingstoner,SiMPLE,TiTAN,cadance,PLAYNOW\r\nUnevano,BigVik,Rapeseed,SAFC,goldadvance,KaN1vE,Pinnz,Wayne,HiGH\r\nSeeN,jtr,Limey,ICONiK,TED,rkofan,mrtoke09\r\nMr Hive\r\n\r\nWONDER WHERE ALL THE OLD DDD FOLKS ARE DONT BE SCARED MESSAGE ME\r\n\r\nsupport the producer and watch it in cinema as intended on the big screen\r\n\r\nLOOKING FOR ANYTHING YOU WANT TO LOOK AND SOUND BETTER\r\n\r\nCOME FIND US WE DONT BITE\r\n","torrent":{"xt":"urn:btih:94e232cc7e86c0af7b8df1d6387ffed66da174a6","amp;dn":"Concussion.2015.DVDScr.XVID.AC3.HQ.Hive-CM8","amp;tr":["udp%3A%2F%2Ftracker.leechers-paradise.org%3A6969","udp%3A%2F%2Fzer0day.ch%3A1337","udp%3A%2F%2Fopen.demonii.com%3A1337","udp%3A%2F%2Ftracker.coppersurfer.tk%3A6969","udp%3A%2F%2Fexodus.desync.com%3A6969"],"infoHash":"94e232cc7e86c0af7b8df1d6387ffed66da174a6","infoHashBuffer":{"type":"Buffer","data":[148,226,50,204,126,134,192,175,123,141,241,214,56,127,254,214,109,161,116,166]},"announce":[],"urlList":[]}}